<svg width="12" height="12" viewBox="0 0 12 12" fill="none" xmlns="http://www.w3.org/2000/svg">
<path d="M6 0.00200009V0C5.21207 -1.17411e-08 4.43185 0.155195 3.7039 0.456723C2.97595 0.758251 2.31451 1.20021 1.75736 1.75736C1.20021 2.31451 0.758251 2.97595 0.456723 3.7039C0.155195 4.43185 0 5.21207 0 6C0 6.78793 0.155195 7.56815 0.456723 8.2961C0.758251 9.02405 1.20021 9.68549 1.75736 10.2426C2.31451 10.7998 2.97595 11.2417 3.7039 11.5433C4.43185 11.8448 5.21207 12 6 12V11.998C6.39273 11.999 6.78461 11.9615 7.17 11.886C7.23548 11.8745 7.298 11.85 7.35391 11.814C7.40981 11.778 7.45797 11.7312 7.49557 11.6763C7.53317 11.6215 7.55945 11.5597 7.57288 11.4946C7.58631 11.4295 7.58662 11.3623 7.57378 11.2971C7.56095 11.2318 7.53523 11.1698 7.49813 11.1146C7.46103 11.0594 7.4133 11.0122 7.35773 10.9757C7.30216 10.9392 7.23986 10.9141 7.17449 10.902C7.10911 10.8899 7.04198 10.8909 6.977 10.905C6.36578 11.0221 5.7385 11.0285 5.125 10.924C4.44454 10.8029 3.79657 10.5421 3.222 10.158C2.67582 9.79311 2.20689 9.32418 1.842 8.778L1.836 8.77C1.47454 8.22607 1.22314 7.61659 1.096 6.976C0.969346 6.3281 0.969685 5.66177 1.097 5.014C1.22591 4.37374 1.47901 3.76494 1.842 3.222C2.20872 2.67325 2.68046 2.20253 3.23 1.837C3.78975 1.46413 4.41897 1.20802 5.08 1.084C5.70766 0.971318 6.35069 0.975047 6.977 1.095C7.1043 1.11438 7.23418 1.0839 7.33957 1.00991C7.44496 0.935916 7.51774 0.824113 7.54275 0.697793C7.56775 0.571472 7.54306 0.440374 7.47381 0.331808C7.40456 0.223242 7.29609 0.14558 7.171 0.115C6.78534 0.0387293 6.39313 -0.00045428 6 0M9.334 1.01C9.22394 0.943144 9.09234 0.921327 8.96659 0.949095C8.84085 0.976863 8.73067 1.05207 8.659 1.15906C8.58733 1.26604 8.55971 1.39656 8.58187 1.52341C8.60404 1.65026 8.6743 1.76366 8.778 1.84C9.32428 2.20518 9.79321 2.67446 10.158 3.221C10.2328 3.32868 10.3469 3.40267 10.4757 3.42705C10.6045 3.45142 10.7377 3.42423 10.8467 3.35133C10.9557 3.27843 11.0316 3.16564 11.0582 3.03727C11.0849 2.9089 11.06 2.77521 10.989 2.665C10.5513 2.01004 9.98896 1.44768 9.334 1.01ZM11.886 4.829C11.8734 4.76449 11.8481 4.70311 11.8117 4.64837C11.7753 4.59362 11.7285 4.54659 11.6739 4.50997C11.6194 4.47334 11.5581 4.44783 11.4936 4.43491C11.4292 4.42199 11.3628 4.4219 11.2983 4.43465C11.2338 4.4474 11.1725 4.47274 11.1178 4.50923C11.0631 4.54571 11.0162 4.59262 10.9797 4.64726C10.9431 4.70191 10.9177 4.76322 10.9049 4.8277C10.8921 4.89217 10.8921 4.95854 10.905 5.023C11.03 5.653 11.03 6.345 10.905 6.975C10.8795 7.10499 10.9067 7.23977 10.9805 7.34976C11.0543 7.45975 11.1687 7.53595 11.2987 7.56165C11.4286 7.58735 11.5634 7.56043 11.6736 7.48682C11.7837 7.4132 11.8601 7.2989 11.886 7.169C12.037 6.39631 12.037 5.60169 11.886 4.829ZM10.989 9.333C11.0559 9.22294 11.0777 9.09134 11.0499 8.96559C11.0221 8.83985 10.9469 8.72967 10.8399 8.658C10.733 8.58633 10.6024 8.55871 10.4756 8.58087C10.3487 8.60304 10.2353 8.6733 10.159 8.777C9.79382 9.32328 9.32454 9.79221 8.778 10.157C8.67032 10.2318 8.59633 10.3459 8.57195 10.4747C8.54758 10.6035 8.57477 10.7367 8.64767 10.8457C8.72057 10.9547 8.83336 11.0306 8.96173 11.0572C9.0901 11.0839 9.22379 11.059 9.334 10.988C9.98896 10.5503 10.5513 9.98796 10.989 9.333Z" fill="currentColor"/>
</svg>
