<svg width="15" height="12" viewBox="0 0 15 12" fill="none" xmlns="http://www.w3.org/2000/svg">
<path d="M11.9972 0C12.0911 0 12.1827 0.0286217 12.2599 0.0820462C12.3371 0.135471 12.3961 0.211157 12.4291 0.299008C12.8352 1.38245 13.6067 1.84573 14.3044 1.84573C14.4268 1.84573 14.5441 1.89434 14.6307 1.98088C14.7172 2.06741 14.7658 2.18478 14.7658 2.30716C14.7658 2.42954 14.7172 2.54691 14.6307 2.63344C14.5441 2.71998 14.4268 2.76859 14.3044 2.76859C13.4166 2.76859 12.5731 2.30993 11.9972 1.46459C11.4214 2.30993 10.5779 2.76859 9.69007 2.76859C8.80228 2.76859 7.95878 2.30993 7.38291 1.46551C6.80705 2.30993 5.96355 2.76859 5.07575 2.76859C4.18888 2.76859 3.34446 2.30993 2.76859 1.46551C2.19273 2.31177 1.34923 2.77136 0.461432 2.77136C0.339053 2.77136 0.221686 2.72275 0.13515 2.63621C0.0486151 2.54968 0 2.43231 0 2.30993C0 2.18755 0.0486151 2.07018 0.13515 1.98365C0.221686 1.89711 0.339053 1.8485 0.461432 1.8485C1.15912 1.8485 1.93063 1.3843 2.33669 0.299931C2.36973 0.21208 2.42877 0.136394 2.50594 0.082969C2.58311 0.0295445 2.67473 0.000922797 2.76859 0.000922797C2.86245 0.000922797 2.95408 0.0295445 3.03124 0.082969C3.10841 0.136394 3.16745 0.21208 3.20049 0.299931C3.60655 1.38245 4.37807 1.84573 5.07575 1.84573C5.77344 1.84573 6.54495 1.38245 6.95101 0.299931C6.98405 0.21208 7.04309 0.136394 7.12026 0.082969C7.19743 0.0295445 7.28906 0.000922797 7.38291 0.000922797C7.47677 0.000922797 7.5684 0.0295445 7.64556 0.082969C7.72273 0.136394 7.78178 0.21208 7.81481 0.299931C8.22087 1.38245 8.99239 1.84573 9.69007 1.84573C10.3878 1.84573 11.1593 1.38245 11.5653 0.299008C11.5984 0.211157 11.6574 0.135471 11.7346 0.0820462C11.8118 0.0286217 11.9034 0 11.9972 0ZM11.9972 4.61432C12.0911 4.61432 12.1827 4.64294 12.2599 4.69637C12.3371 4.74979 12.3961 4.82548 12.4291 4.91333C12.8352 5.99677 13.6067 6.46005 14.3044 6.46005C14.4268 6.46005 14.5441 6.50866 14.6307 6.5952C14.7172 6.68173 14.7658 6.7991 14.7658 6.92148C14.7658 7.04386 14.7172 7.16123 14.6307 7.24776C14.5441 7.3343 14.4268 7.38291 14.3044 7.38291C13.4166 7.38291 12.5731 6.92425 11.9972 6.0789C11.4214 6.92425 10.5779 7.38291 9.69007 7.38291C8.80228 7.38291 7.95878 6.92425 7.38291 6.07983C6.80705 6.92425 5.96355 7.38291 5.07575 7.38291C4.18888 7.38291 3.34446 6.92425 2.76859 6.07983C2.19273 6.92609 1.34923 7.38568 0.461432 7.38568C0.339053 7.38568 0.221686 7.33706 0.13515 7.25053C0.0486151 7.16399 0 7.04663 0 6.92425C0 6.80187 0.0486151 6.6845 0.13515 6.59797C0.221686 6.51143 0.339053 6.46282 0.461432 6.46282C1.15912 6.46282 1.93063 5.99862 2.33669 4.91425C2.36973 4.8264 2.42877 4.75071 2.50594 4.69729C2.58311 4.64386 2.67473 4.61524 2.76859 4.61524C2.86245 4.61524 2.95408 4.64386 3.03124 4.69729C3.10841 4.75071 3.16745 4.8264 3.20049 4.91425C3.60655 5.99677 4.37807 6.46005 5.07575 6.46005C5.77344 6.46005 6.54495 5.99677 6.95101 4.91425C6.98405 4.8264 7.04309 4.75071 7.12026 4.69729C7.19743 4.64386 7.28906 4.61524 7.38291 4.61524C7.47677 4.61524 7.5684 4.64386 7.64556 4.69729C7.72273 4.75071 7.78178 4.8264 7.81481 4.91425C8.22087 5.99677 8.99239 6.46005 9.69007 6.46005C10.3878 6.46005 11.1593 5.99677 11.5653 4.91333C11.5984 4.82548 11.6574 4.74979 11.7346 4.69637C11.8118 4.64294 11.9034 4.61432 11.9972 4.61432ZM12.4291 9.52765C12.3961 9.4398 12.3371 9.36411 12.2599 9.31069C12.1827 9.25726 12.0911 9.22864 11.9972 9.22864C11.9034 9.22864 11.8118 9.25726 11.7346 9.31069C11.6574 9.36411 11.5984 9.4398 11.5653 9.52765C11.1593 10.6111 10.3878 11.0744 9.69007 11.0744C8.99239 11.0744 8.22087 10.6111 7.81481 9.52857C7.78178 9.44072 7.72273 9.36503 7.64556 9.31161C7.5684 9.25818 7.47677 9.22956 7.38291 9.22956C7.28906 9.22956 7.19743 9.25818 7.12026 9.31161C7.04309 9.36503 6.98405 9.44072 6.95101 9.52857C6.54495 10.6111 5.77344 11.0744 5.07575 11.0744C4.37807 11.0744 3.60655 10.6111 3.20049 9.52857C3.16745 9.44072 3.10841 9.36503 3.03124 9.31161C2.95408 9.25818 2.86245 9.22956 2.76859 9.22956C2.67473 9.22956 2.58311 9.25818 2.50594 9.31161C2.42877 9.36503 2.36973 9.44072 2.33669 9.52857C1.93063 10.6129 1.15912 11.0771 0.461432 11.0771C0.339053 11.0771 0.221686 11.1258 0.13515 11.2123C0.0486151 11.2988 0 11.4162 0 11.5386C0 11.6609 0.0486151 11.7783 0.13515 11.8649C0.221686 11.9514 0.339053 12 0.461432 12C1.34923 12 2.19273 11.5404 2.76859 10.6941C3.34446 11.5386 4.1898 11.9972 5.07575 11.9972C5.9617 11.9972 6.80705 11.5386 7.38291 10.6941C7.95878 11.5386 8.80228 11.9972 9.69007 11.9972C10.5779 11.9972 11.4214 11.5386 11.9972 10.6932C12.5731 11.5386 13.4166 11.9972 14.3044 11.9972C14.4268 11.9972 14.5441 11.9486 14.6307 11.8621C14.7172 11.7755 14.7658 11.6582 14.7658 11.5358C14.7658 11.4134 14.7172 11.2961 14.6307 11.2095C14.5441 11.123 14.4268 11.0744 14.3044 11.0744C13.6067 11.0744 12.8352 10.6111 12.4291 9.52765Z" fill="currentColor"/>
</svg>
